<svg width="23" height="23" viewBox="0 0 23 23" fill="none" xmlns="http://www.w3.org/2000/svg">
<circle cx="11.5" cy="11.5" r="11.5" fill="#AEAEAE"/>
<g clip-path="url(#clip0_56_62)">
<path d="M17 11.5C17 8.46243 14.5376 6 11.5 6C8.46243 6 6 8.46243 6 11.5C6 14.2452 8.01126 16.5206 10.6406 16.9332V13.0898H9.24414V11.5H10.6406V10.2883C10.6406 8.90984 11.4618 8.14844 12.7181 8.14844C13.3196 8.14844 13.9492 8.25586 13.9492 8.25586V9.60937H13.2557C12.5725 9.60937 12.3594 10.0334 12.3594 10.4688V11.5H13.8848L13.6409 13.0898H12.3594V16.9332C14.9887 16.5206 17 14.2452 17 11.5Z" fill="white"/>
</g>
<defs>
<clipPath id="clip0_56_62">
<rect width="11" height="11" fill="white" transform="translate(6 6)"/>
</clipPath>
</defs>
</svg>
