<svg width="23" height="23" viewBox="0 0 23 23" fill="none" xmlns="http://www.w3.org/2000/svg">
<circle cx="11.5" cy="11.5" r="11.5" fill="#AEAEAE"/>
<g clip-path="url(#clip0_56_230)">
<path fill-rule="evenodd" clip-rule="evenodd" d="M11.5 6.22913C10.1943 6.2298 8.93144 6.69225 7.9372 7.53378C6.94295 8.37531 6.28217 9.54105 6.07301 10.8225C5.86384 12.104 6.11993 13.4177 6.79549 14.5287C7.47105 15.6397 8.52202 16.4755 9.76048 16.8867C10.0337 16.9375 10.1366 16.7681 10.1366 16.6241C10.1366 16.4801 10.1311 16.0627 10.1293 15.6063C8.59927 15.9368 8.27596 14.9606 8.27596 14.9606C8.02641 14.3267 7.66576 14.1601 7.66576 14.1601C7.16667 13.8214 7.7031 13.8277 7.7031 13.8277C8.25593 13.8667 8.54645 14.3919 8.54645 14.3919C9.03644 15.2277 9.83333 14.986 10.1466 14.8447C10.1958 14.4906 10.3388 14.2497 10.4964 14.113C9.27414 13.9753 7.98998 13.5063 7.98998 11.4108C7.98241 10.8673 8.18523 10.3418 8.55647 9.94286C8.5 9.80521 8.31148 9.24919 8.6102 8.49395C8.6102 8.49395 9.07195 8.34725 10.123 9.05449C11.0244 8.80937 11.9756 8.80937 12.8771 9.05449C13.9271 8.34725 14.388 8.49395 14.388 8.49395C14.6876 9.24738 14.4991 9.8034 14.4426 9.94286C14.815 10.3418 15.0183 10.8683 15.01 11.4126C15.01 13.5126 13.7231 13.9753 12.4991 14.1103C12.6958 14.2805 12.8716 14.6129 12.8716 15.1236C12.8716 15.8553 12.8652 16.4439 12.8652 16.6241C12.8652 16.7699 12.9645 16.9402 13.2432 16.8867C14.4818 16.4755 15.5328 15.6395 16.2084 14.5283C16.8839 13.4172 17.1399 12.1033 16.9305 10.8216C16.7211 9.54004 16.06 8.37429 15.0654 7.5329C14.0708 6.69152 12.8077 6.22937 11.5018 6.22913H11.5Z" fill="white"/>
<path d="M9.67948 15.1554C9.67948 15.1998 9.62849 15.2378 9.56291 15.2387C9.49734 15.2396 9.4436 15.2034 9.4436 15.159C9.4436 15.1146 9.4946 15.0766 9.56018 15.0757C9.62575 15.0748 9.67948 15.1101 9.67948 15.1554Z" fill="white"/>
<path d="M10.0983 15.0856C10.1065 15.13 10.0609 15.1761 9.99535 15.187C9.92978 15.1979 9.8724 15.1716 9.8642 15.1281C9.85601 15.0847 9.90337 15.0376 9.96712 15.0258C10.0309 15.014 10.0901 15.0412 10.0983 15.0856Z" fill="white"/>
<path d="M9.22941 15.1246C9.21575 15.1671 9.15382 15.1861 9.09189 15.168C9.02996 15.1499 8.98898 15.0992 9.00082 15.0557C9.01266 15.0123 9.0755 14.9923 9.13834 15.0123C9.20118 15.0322 9.24125 15.0802 9.22941 15.1246Z" fill="white"/>
<path d="M8.81683 14.947C8.78677 14.9805 8.72575 14.9715 8.67566 14.9262C8.62557 14.8809 8.61373 14.8193 8.64378 14.7867C8.67384 14.7541 8.73486 14.7632 8.78677 14.8076C8.83868 14.8519 8.8487 14.9144 8.81683 14.947Z" fill="white"/>
<path d="M8.5229 14.6428C8.4892 14.6663 8.43182 14.6428 8.39994 14.5957C8.39113 14.5872 8.38412 14.5771 8.37933 14.5659C8.37454 14.5547 8.37207 14.5427 8.37207 14.5305C8.37207 14.5183 8.37454 14.5063 8.37933 14.4951C8.38412 14.4839 8.39113 14.4737 8.39994 14.4653C8.43364 14.4426 8.49102 14.4653 8.5229 14.5115C8.55477 14.5577 8.55568 14.6192 8.5229 14.6428Z" fill="white"/>
<path d="M8.3059 14.3286C8.28704 14.3381 8.26546 14.3407 8.24486 14.3361C8.22426 14.3314 8.20591 14.3198 8.19297 14.3032C8.15745 14.2652 8.15016 14.2127 8.17748 14.1891C8.2048 14.1656 8.25399 14.1765 8.28951 14.2145C8.32502 14.2525 8.33322 14.3051 8.3059 14.3286Z" fill="white"/>
<path d="M8.08296 14.0813C8.07112 14.1085 8.02741 14.1166 7.99189 14.0976C7.95637 14.0786 7.92996 14.0433 7.94271 14.0152C7.95546 13.9871 7.99827 13.9799 8.03378 13.9989C8.0693 14.0179 8.09662 14.0541 8.08296 14.0813Z" fill="white"/>
</g>
<defs>
<clipPath id="clip0_56_230">
<rect width="11" height="11" fill="white" transform="translate(6 6)"/>
</clipPath>
</defs>
</svg>
