<svg width="23" height="23" viewBox="0 0 23 23" fill="none" xmlns="http://www.w3.org/2000/svg">
<circle cx="11.5" cy="11.5" r="11.5" fill="#AEAEAE"/>
<g clip-path="url(#clip0_56_220)">
<path d="M11.5 6.99043C12.9695 6.99043 13.1436 6.99687 13.7215 7.02266C14.2586 7.04629 14.5486 7.13652 14.742 7.21172C14.9977 7.31055 15.1824 7.43086 15.3736 7.62207C15.567 7.81543 15.6852 7.99805 15.784 8.25371C15.8592 8.44707 15.9494 8.73926 15.973 9.27422C15.9988 9.8543 16.0053 10.0283 16.0053 11.4957C16.0053 12.9652 15.9988 13.1393 15.973 13.7172C15.9494 14.2543 15.8592 14.5443 15.784 14.7377C15.6852 14.9934 15.5648 15.1781 15.3736 15.3693C15.1803 15.5627 14.9977 15.6809 14.742 15.7797C14.5486 15.8549 14.2564 15.9451 13.7215 15.9688C13.1414 15.9945 12.9674 16.001 11.5 16.001C10.0305 16.001 9.85645 15.9945 9.27852 15.9688C8.74141 15.9451 8.45137 15.8549 8.25801 15.7797C8.00234 15.6809 7.81758 15.5605 7.62637 15.3693C7.43301 15.176 7.31484 14.9934 7.21602 14.7377C7.14082 14.5443 7.05059 14.2521 7.02695 13.7172C7.00117 13.1371 6.99473 12.9631 6.99473 11.4957C6.99473 10.0262 7.00117 9.85215 7.02695 9.27422C7.05059 8.73711 7.14082 8.44707 7.21602 8.25371C7.31484 7.99805 7.43516 7.81328 7.62637 7.62207C7.81973 7.42871 8.00234 7.31055 8.25801 7.21172C8.45137 7.13652 8.74355 7.04629 9.27852 7.02266C9.85645 6.99687 10.0305 6.99043 11.5 6.99043ZM11.5 6C10.0068 6 9.81992 6.00645 9.2334 6.03223C8.64902 6.05801 8.24727 6.15254 7.89922 6.28789C7.53613 6.42969 7.22891 6.6166 6.92383 6.92383C6.6166 7.22891 6.42969 7.53613 6.28789 7.89707C6.15254 8.24727 6.05801 8.64687 6.03223 9.23125C6.00645 9.81992 6 10.0068 6 11.5C6 12.9932 6.00645 13.1801 6.03223 13.7666C6.05801 14.351 6.15254 14.7527 6.28789 15.1008C6.42969 15.4639 6.6166 15.7711 6.92383 16.0762C7.22891 16.3813 7.53613 16.5703 7.89707 16.71C8.24727 16.8453 8.64687 16.9398 9.23125 16.9656C9.81777 16.9914 10.0047 16.9979 11.4979 16.9979C12.991 16.9979 13.1779 16.9914 13.7645 16.9656C14.3488 16.9398 14.7506 16.8453 15.0986 16.71C15.4596 16.5703 15.7668 16.3813 16.0719 16.0762C16.377 15.7711 16.566 15.4639 16.7057 15.1029C16.841 14.7527 16.9355 14.3531 16.9613 13.7688C16.9871 13.1822 16.9936 12.9953 16.9936 11.5021C16.9936 10.009 16.9871 9.82207 16.9613 9.23555C16.9355 8.65117 16.841 8.24941 16.7057 7.90137C16.5703 7.53613 16.3834 7.22891 16.0762 6.92383C15.7711 6.61875 15.4639 6.42969 15.1029 6.29004C14.7527 6.15469 14.3531 6.06016 13.7688 6.03438C13.1801 6.00645 12.9932 6 11.5 6Z" fill="white"/>
<path d="M11.5 8.6748C9.94023 8.6748 8.6748 9.94023 8.6748 11.5C8.6748 13.0598 9.94023 14.3252 11.5 14.3252C13.0598 14.3252 14.3252 13.0598 14.3252 11.5C14.3252 9.94023 13.0598 8.6748 11.5 8.6748ZM11.5 13.3326C10.4881 13.3326 9.66738 12.5119 9.66738 11.5C9.66738 10.4881 10.4881 9.66738 11.5 9.66738C12.5119 9.66738 13.3326 10.4881 13.3326 11.5C13.3326 12.5119 12.5119 13.3326 11.5 13.3326Z" fill="white"/>
<path d="M15.0965 8.56301C15.0965 8.92825 14.8 9.22258 14.4369 9.22258C14.0717 9.22258 13.7773 8.9261 13.7773 8.56301C13.7773 8.19778 14.0738 7.90344 14.4369 7.90344C14.8 7.90344 15.0965 8.19993 15.0965 8.56301Z" fill="white"/>
</g>
<defs>
<clipPath id="clip0_56_220">
<rect width="11" height="11" fill="white" transform="translate(6 6)"/>
</clipPath>
</defs>
</svg>
