<svg width="65" height="65" viewBox="0 0 65 65" fill="none" xmlns="http://www.w3.org/2000/svg">
<circle cx="32.5" cy="32.5" r="32.5" fill="#D3F0E8"/>
<path d="M32.9999 42.8333C31.8917 42.8333 30.9519 43.5545 30.6241 44.5531M32.9999 42.8333C34.1082 42.8333 35.048 43.5545 35.3757 44.5531M32.9999 42.8333C32.9999 42.1667 32.9999 39.7778 32.9999 38.6667M32.9999 21.1667C31.846 21.1667 30.8747 20.385 30.5867 19.3222M32.9999 21.1667C34.1538 21.1667 35.1251 20.385 35.4131 19.3222M32.9999 21.1667V25.3334M30.6241 44.5531C30.5435 44.7986 30.4999 45.0609 30.4999 45.3333C30.4999 46.7141 31.6192 47.8333 32.9999 47.8333C34.3806 47.8333 35.4999 46.7141 35.4999 45.3333C35.4999 45.0609 35.4563 44.7986 35.3757 44.5531M30.6241 44.5531L22.6079 40.8178M35.3757 44.5531L43.392 40.8178M22.6079 40.8178C23.3415 40.3821 23.8333 39.5818 23.8333 38.6667C23.8333 38.0716 23.6254 37.5252 23.2783 37.0959M22.6079 40.8178C22.2346 41.0394 21.7988 41.1667 21.3333 41.1667C19.9525 41.1667 18.8333 40.0474 18.8333 38.6667C18.8333 37.9263 19.1551 37.261 19.6666 36.8033M19.6666 36.8033C20.1089 36.4074 20.693 36.1667 21.3333 36.1667C22.1189 36.1667 22.82 36.5291 23.2783 37.0959M19.6666 36.8033V25.5301M19.6666 25.5301C20.1089 25.926 20.693 26.1667 21.3333 26.1667C22.111 26.1667 22.8058 25.8115 23.2643 25.2546M19.6666 25.5301C19.1551 25.0723 18.8333 24.4071 18.8333 23.6667C18.8333 22.286 19.9525 21.1667 21.3333 21.1667C22.0384 21.1667 22.6753 21.4586 23.1298 21.9282M23.1298 21.9282C23.5653 22.3781 23.8333 22.9911 23.8333 23.6667C23.8333 24.2697 23.6198 24.8228 23.2643 25.2546M23.1298 21.9282L30.5867 19.3222M23.2643 25.2546L27.7006 27.9544M30.5867 19.3222C30.5301 19.1133 30.4999 18.8935 30.4999 18.6667C30.4999 17.286 31.6192 16.1667 32.9999 16.1667C34.3806 16.1667 35.4999 17.286 35.4999 18.6667C35.4999 18.8935 35.4697 19.1133 35.4131 19.3222M35.4131 19.3222L42.87 21.9282M42.87 21.9282C42.4345 22.3781 42.1666 22.9911 42.1666 23.6667C42.1666 24.2697 42.38 24.8228 42.7355 25.2546M42.87 21.9282C43.3245 21.4586 43.9614 21.1667 44.6666 21.1667C46.0473 21.1667 47.1666 22.286 47.1666 23.6667C47.1666 24.4071 46.8447 25.0723 46.3332 25.5301M46.3332 25.5301C45.8909 25.926 45.3069 26.1667 44.6666 26.1667C43.8888 26.1667 43.194 25.8115 42.7355 25.2546M46.3332 25.5301V36.8033M46.3332 36.8033C45.8909 36.4074 45.3069 36.1667 44.6666 36.1667C43.8809 36.1667 43.1799 36.5291 42.7216 37.0959M46.3332 36.8033C46.8447 37.261 47.1666 37.9263 47.1666 38.6667C47.1666 40.0474 46.0473 41.1667 44.6666 41.1667C44.201 41.1667 43.7652 41.0394 43.392 40.8178M43.392 40.8178C42.6583 40.3821 42.1666 39.5818 42.1666 38.6667C42.1666 38.0716 42.3745 37.5252 42.7216 37.0959M42.7216 37.0959L39.029 34.8487M42.7355 25.2546L38.2992 27.9544M23.2783 37.0959L26.9708 34.8487M32.9999 38.6667C30.3372 38.6667 28.039 37.1056 26.9708 34.8487M32.9999 38.6667C35.6627 38.6667 37.9608 37.1056 39.029 34.8487M32.9999 25.3334C35.1605 25.3334 37.081 26.3611 38.2992 27.9544M32.9999 25.3334C30.8394 25.3334 28.9188 26.3611 27.7006 27.9544M38.2992 27.9544C39.157 29.0764 39.6666 30.4787 39.6666 32C39.6666 33.0192 39.4379 33.9849 39.029 34.8487M27.7006 27.9544C26.8428 29.0764 26.3332 30.4787 26.3332 32C26.3332 33.0192 26.5619 33.9849 26.9708 34.8487" stroke="#20B486" stroke-width="2" stroke-linecap="round" stroke-linejoin="round"/>
</svg>
