<svg width="33" height="33" viewBox="0 0 33 33" fill="none" xmlns="http://www.w3.org/2000/svg">
<circle cx="16.5" cy="16.5" r="16.5" fill="#D3F0E8"/>
<path d="M13.5361 11C13.8249 11 14.091 11.1566 14.2313 11.4092L15.2039 13.1612C15.3312 13.3906 15.3372 13.6681 15.2199 13.9027L14.2829 15.7768C14.2829 15.7768 14.5544 17.1728 15.6908 18.3092C16.8273 19.4456 18.2186 19.7124 18.2186 19.7124L20.0923 18.7756C20.3271 18.6582 20.6048 18.6642 20.8343 18.7918L22.5912 19.7686C22.8436 19.9089 23 20.1749 23 20.4636V22.4806C23 23.5078 22.0459 24.2497 21.0726 23.9213C19.0737 23.2468 15.9708 21.9626 14.0041 19.9959C12.0374 18.0292 10.7532 14.9263 10.0787 12.9274C9.75028 11.9541 10.4922 11 11.5193 11H13.5361Z" stroke="#20B486" stroke-width="1.5" stroke-linejoin="round"/>
</svg>
